<?xml version="1.0" standalone="no"?>
<!DOCTYPE svg PUBLIC "-//W3C//DTD SVG 20010904//EN"
 "http://www.w3.org/TR/2001/REC-SVG-20010904/DTD/svg10.dtd">
<svg version="1.0" xmlns="http://www.w3.org/2000/svg"
 width="213.000000pt" height="213.000000pt" viewBox="0 0 213.000000 213.000000"
 preserveAspectRatio="xMidYMid meet">

<g transform="translate(0.000000,213.000000) scale(0.100000,-0.100000)"
fill="#000000" stroke="none">
<path d="M1610 1476 c-7 -10 -22 -11 -55 -5 -43 8 -135 1 -260 -21 -33 -5 -82
-10 -108 -10 -34 0 -49 -5 -54 -16 -8 -20 32 -61 68 -69 38 -9 37 -20 -6 -58
-38 -33 -41 -47 -24 -96 14 -39 44 -43 36 -5 -2 14 3 44 12 67 l16 42 140 -2
c131 -3 181 4 161 24 -4 4 -67 10 -139 13 -73 3 -125 8 -117 12 8 3 72 14 142
23 145 18 177 14 265 -36 65 -36 88 -38 78 -6 -4 12 -7 36 -7 52 1 24 -6 35
-36 56 -53 37 -98 51 -112 35z"/>
<path d="M455 1455 c-27 -8 -62 -17 -77 -20 -52 -10 -116 -85 -73 -85 8 0 15
-9 15 -19 0 -31 24 -31 70 -1 85 56 185 66 382 36 119 -18 128 -18 152 -2 28
17 34 50 14 63 -19 12 -210 34 -328 38 -69 2 -122 -1 -155 -10z"/>
<path d="M560 1315 c0 -13 23 -15 148 -15 l149 0 11 -39 c7 -21 12 -50 12 -65
0 -30 17 -34 36 -8 30 40 6 112 -38 112 -9 0 -18 7 -22 15 -4 12 -31 15 -151
15 -122 0 -145 -2 -145 -15z"/>
<path d="M540 1281 c-39 -5 -130 -74 -130 -98 0 -8 8 -13 18 -11 9 1 28 -5 42
-14 20 -12 62 -17 192 -21 91 -2 172 -1 179 3 9 6 8 17 -6 46 -17 36 -17 38 1
51 36 26 0 38 -139 43 -73 3 -143 3 -157 1z m30 -71 c0 -35 -3 -40 -24 -40
-31 0 -86 20 -86 31 0 11 70 48 93 49 13 0 17 -8 17 -40z m218 -5 c19 -30 20
-36 7 -41 -30 -12 -65 5 -65 30 0 62 22 66 58 11z"/>
<path d="M1312 1283 c-56 -4 -74 -21 -53 -47 9 -11 8 -23 -4 -51 -8 -21 -15
-39 -15 -41 0 -2 80 -4 178 -4 141 0 182 3 198 15 10 8 29 15 41 15 36 0 35
16 -2 53 -66 66 -118 75 -343 60z m48 -73 l0 -40 -41 0 -41 0 32 40 c17 22 36
40 41 40 5 0 9 -18 9 -40z m239 23 c52 -30 32 -53 -46 -53 -31 0 -33 2 -33 35
0 30 3 35 24 35 13 0 38 -8 55 -17z"/>
<path d="M1661 872 c-68 -106 -116 -238 -128 -354 -5 -47 -3 -58 9 -58 10 0
20 24 32 78 25 108 61 205 107 289 21 40 39 77 39 83 0 25 -31 6 -59 -38z"/>
<path d="M1442 725 c-72 -82 -272 -125 -572 -121 -96 1 -187 6 -202 10 -21 7
-27 4 -33 -13 -8 -26 22 -91 42 -91 8 0 17 8 19 18 5 15 22 17 177 18 229 1
405 28 501 76 52 26 116 87 116 110 0 25 -23 22 -48 -7z"/>
</g>
</svg>
